<svg xmlns="http://www.w3.org/2000/svg" xmlns:xlink="http://www.w3.org/1999/xlink" xmlns:lucid="lucid" width="1295" height="441.72"><g transform="translate(-20 -100.07499999999999)" lucid:page-tab-id="Ku1bfkRv5Crk"><path d="M0 0h1760v1360H0z" fill="#fff"/><path d="M63.33 141.95H200l-23.33 87.5H40z" stroke="#000" stroke-width="2" fill="#fff"/><use xlink:href="#a" transform="matrix(1,0,0,1,45,146.95) translate(49.525 21)"/><use xlink:href="#b" transform="matrix(1,0,0,1,45,146.95) translate(29.525 42.6)"/><use xlink:href="#c" transform="matrix(1,0,0,1,45,146.95) translate(80.475 42.6)"/><use xlink:href="#b" transform="matrix(1,0,0,1,45,146.95) translate(15.549999999999997 64.2)"/><use xlink:href="#d" transform="matrix(1,0,0,1,45,146.95) translate(66.5 64.2)"/><use xlink:href="#e" transform="matrix(1,0,0,1,45,146.95) translate(99.45 64.2)"/><path d="M320 122.57l80 62.5-80 62.5-80-62.5z" stroke="#000" stroke-width="2" fill="#fff"/><use xlink:href="#f" transform="matrix(1,0,0,1,245,127.57499999999999) translate(33.55 39.5)"/><use xlink:href="#g" transform="matrix(1,0,0,1,245,127.57499999999999) translate(51.025 61.1)"/><use xlink:href="#h" transform="matrix(1,0,0,1,245,127.57499999999999) translate(54.75 82.70000000000002)"/><use xlink:href="#i" transform="matrix(1,0,0,1,245,127.57499999999999) translate(70.25 82.70000000000002)"/><use xlink:href="#j" transform="matrix(1,0,0,1,245,127.57499999999999) translate(85.25 82.70000000000002)"/><path d="M412.63 186.07h-10v-2h10zm47.24-2.5h-17.9v-2h17.9z"/><path d="M402.65 186.07h-2.3l1.27-1-1.28-1h2.3zM475.14 182.57l-14.27 4.64v-9.26z"/><path d="M478.38 182.57l-18.5 6.02v-12.04zm-16.5 3.26l10.02-3.26-10.03-3.25z"/><use xlink:href="#k" transform="matrix(1,0,0,1,412.62996840098094,174.27499999999998) translate(0 14.4)"/><path d="M560 120.07l80 62.5-80 62.5-80-62.5z" stroke="#000" stroke-width="2" fill="#fff"/><use xlink:href="#l" transform="matrix(1,0,0,1,485,125.07499999999999) translate(37.55 50.3)"/><use xlink:href="#m" transform="matrix(1,0,0,1,485,125.07499999999999) translate(38.8 71.9)"/><use xlink:href="#n" transform="matrix(1,0,0,1,485,125.07499999999999) translate(59.3 71.9)"/><path d="M690 280h110v101.32H690z" stroke="#000" stroke-width="2" fill="#fff"/><use xlink:href="#o" transform="matrix(1,0,0,1,695,285) translate(6.074999999999996 28)"/><use xlink:href="#p" transform="matrix(1,0,0,1,695,285) translate(8.549999999999997 49.6)"/><use xlink:href="#q" transform="matrix(1,0,0,1,695,285) translate(23.525 71.2)"/><use xlink:href="#r" transform="matrix(1,0,0,1,695,285) translate(28.525 71.2)"/><path d="M850 122.57l70 63.13-70 63.13-70-63.13z" stroke="#000" stroke-width="2" fill="#fff"/><use xlink:href="#l" transform="matrix(1,0,0,1,785,127.57499999999999) translate(27.549999999999997 51.3)"/><use xlink:href="#s" transform="matrix(1,0,0,1,785,127.57499999999999) translate(27.525 72.9)"/><use xlink:href="#t" transform="matrix(1,0,0,1,785,127.57499999999999) translate(53.525 72.9)"/><path d="M1080 125.7l80 60-80 60-80-60z" stroke="#000" stroke-width="2" fill="#fff"/><use xlink:href="#f" transform="matrix(1,0,0,1,1005,130.7) translate(33.55 37)"/><use xlink:href="#g" transform="matrix(1,0,0,1,1005,130.7) translate(51.025 58.6)"/><use xlink:href="#u" transform="matrix(1,0,0,1,1005,130.7) translate(49.5 80.20000000000002)"/><use xlink:href="#i" transform="matrix(1,0,0,1,1005,130.7) translate(75.5 80.20000000000002)"/><use xlink:href="#j" transform="matrix(1,0,0,1,1005,130.7) translate(90.5 80.20000000000002)"/><path d="M428.5 381.32h133v71.8h-133z" stroke="#000" stroke-width="2" fill="#a3d977"/><use xlink:href="#v" transform="matrix(1,0,0,1,433.5,386.325) translate(12.599999999999994 23.799999999999997)"/><use xlink:href="#w" transform="matrix(1,0,0,1,433.5,386.325) translate(5.599999999999994 45.4)"/><use xlink:href="#x" transform="matrix(1,0,0,1,433.5,386.325) translate(75.45 45.4)"/><path d="M760 184.7v2h-46.24v-2zm-117.38-1.13v-2h48.2v2z"/><path d="M642.65 183.57h-2.3l1.27-1-1.28-1h2.3zM775.27 185.7L761 190.34v-9.28z"/><path d="M778.5 185.7l-18.5 6v-12zm-16.5 3.26l10.03-3.26-10.03-3.26z"/><use xlink:href="#y" transform="matrix(1,0,0,1,690.8064469828643,171.77499999999998) translate(0 14.4)"/><path d="M561 329.66h6.67v2H559v-84.32h2zm109.5 0v2h-73.48v-2z"/><path d="M561 247.37h-2v-1.8l1 .77 1-.78zM685.76 330.66l-14.26 4.64v-9.27z"/><path d="M689 330.66l-18.5 6v-12zm-16.5 3.26l10.03-3.26-10.03-3.26z"/><use xlink:href="#k" transform="matrix(1,0,0,1,567.6657481407577,319.86249999999995) translate(0 14.4)"/><path d="M190.37 185.7h30.3" stroke="#000" stroke-width="2" fill="none"/><path d="M190.4 186.7h-1.3l.53-2h.76z"/><path d="M235.94 185.7l-14.27 4.64v-9.28z" stroke="#000" stroke-width="2"/><path d="M961.33 185.32h19.33v2h-21.33v-.62h-.8v-2h2.8zm-38.84 1.38v-2h13.08v2z"/><path d="M922.52 186.7h-2.14l1.1-1-1.1-1h2.14zM995.93 186.32l-14.27 4.64v-9.27z"/><path d="M999.17 186.32l-18.5 6.02V180.3zm-16.5 3.26l10.02-3.26-10.04-3.25z"/><use xlink:href="#y" transform="matrix(1,0,0,1,935.5812292429982,174.89999999999998) translate(0 14.4)"/><path d="M900 280h100v66.25H900z" stroke="#000" stroke-width="2" fill="#fff"/><use xlink:href="#f" transform="matrix(1,0,0,1,905,285) translate(3.549999999999997 21.299999999999997)"/><use xlink:href="#z" transform="matrix(1,0,0,1,905,285) translate(5.774999999999999 42.9)"/><use xlink:href="#A" transform="matrix(1,0,0,1,905,285) translate(58.725 42.9)"/><use xlink:href="#B" transform="matrix(1,0,0,1,905,285) translate(74.225 42.9)"/><path d="M851 312.13h29.5v2H849v-21.95h2zm0-41.55h-2v-19.4h2z"/><path d="M851 251.2h-2v-1.93l1 .9 1-.9zM895.76 313.13l-14.26 4.63v-9.27z"/><path d="M899 313.13l-18.5 6v-12.02zm-16.5 3.25l10.03-3.25-10.03-3.26z"/><use xlink:href="#k" transform="matrix(1,0,0,1,835.325,270.57845940002727) translate(0 14.4)"/><path d="M745 278v-92.3h15" stroke="#000" stroke-width="2" fill="none"/><path d="M746 279h-2v-1.03h2z"/><path d="M775.27 185.7L761 190.34v-9.28z" stroke="#000" stroke-width="2"/><path d="M1217.5 350l77.5 70-77.5 70-77.5-70z" stroke="#000" stroke-width="2" fill="#fff"/><use xlink:href="#C" transform="matrix(1,0,0,1,1145,355) translate(35.05 47)"/><use xlink:href="#D" transform="matrix(1,0,0,1,1145,355) translate(37.62499999999999 68.60000000000001)"/><use xlink:href="#E" transform="matrix(1,0,0,1,1145,355) translate(30 90.20000000000002)"/><use xlink:href="#F" transform="matrix(1,0,0,1,1145,355) translate(56 90.20000000000002)"/><path d="M1218.5 330.15h-2v-80.1h2zm0-101.7h-2V186.7h-53.83v-2h55.83z"/><path d="M1162.7 186.7h-2.37l1.34-1-1.34-1h2.36zM1217.5 345.42l-4.64-14.27h9.28z"/><path d="M1217.5 348.65l-6-18.5h12zm-3.26-16.5l3.26 10.03 3.26-10.03z"/><use xlink:href="#y" transform="matrix(1,0,0,1,1206.025,228.45957208900404) translate(0 14.4)"/><path d="M940 360l80 60-80 60-80-60z" stroke="#000" stroke-width="2" fill="#fff"/><use xlink:href="#C" transform="matrix(1,0,0,1,865,365) translate(37.55 37)"/><use xlink:href="#E" transform="matrix(1,0,0,1,865,365) translate(34.9 58.6)"/><use xlink:href="#G" transform="matrix(1,0,0,1,865,365) translate(60.9 58.6)"/><use xlink:href="#H" transform="matrix(1,0,0,1,865,365) translate(105.80000000000001 58.6)"/><use xlink:href="#s" transform="matrix(1,0,0,1,865,365) translate(33.599999999999994 80.20000000000002)"/><use xlink:href="#I" transform="matrix(1,0,0,1,865,365) translate(59.599999999999994 80.20000000000002)"/><path d="M1081 421h-40.83v-2H1079V289.47h2zm0-153.13h-2v-19.92h2z"/><path d="M1081 247.98h-2v-1.78l1 .75 1-.75zM1039.17 424.64L1024.9 420l14.27-4.64z"/><path d="M1040.17 426l-18.5-6 18.5-6zm-12.03-6l10.03 3.26v-6.52z"/><use xlink:href="#k" transform="matrix(1,0,0,1,1065.325,267.8666666666667) translate(0 14.4)"/><path d="M1094.66 421h-54.5v-2h54.5zm42.85 0H1124v-2h13.5z"/><path d="M1138.5 420l1.12 1h-2.14v-2h2.14zM1039.17 424.64L1024.9 420l14.27-4.64z"/><path d="M1040.17 426l-18.5-6 18.5-6zm-12.03-6l10.03 3.26v-6.52z"/><g><use xlink:href="#k" transform="matrix(1,0,0,1,1094.6583333333333,409.2) translate(0 14.4)"/></g><path d="M1002 313.13h78V420h-39.83" stroke="#000" stroke-width="2" fill="none"/><path d="M1002.03 314.13H1001v-2h1.03z"/><path d="M1024.9 420l14.27-4.64v9.28z" stroke="#000" stroke-width="2"/><path d="M857.33 419v2H725.1v-2zM581 417.04v-2h114.74v2z"/><path d="M858.33 420l1.34 1h-2.36v-2h2.37zM580 420.67l-14.26-4.63L580 411.4z"/><path d="M581 422.05l-18.5-6 18.5-6.02zm-12.03-6L579 419.3v-6.52z"/><g><use xlink:href="#k" transform="matrix(1,0,0,1,695.7416666666668,407.218859007149) translate(0 14.4)"/></g><path d="M247.5 520.25H939v-8.12h2v10.12H245.5v-41.42h2zM941 490.53h-2v-8.28h2z"/><path d="M941 482.28h-2v-1.78l1 .75 1-.75zM251.14 479.83h-9.28l4.64-14.27z"/><path d="M252.5 480.83h-12l6-18.5zm-9.26-2h6.52l-3.26-10.03z"/><g><use xlink:href="#y" transform="matrix(1,0,0,1,928.525,490.5333333333333) translate(0 14.4)"/></g><path d="M180 364.92h133v96.4H180z" stroke="#000" stroke-width="2" fill="#ff8f80"/><g><use xlink:href="#J" transform="matrix(1,0,0,1,185,369.92499999999995) translate(21.549999999999997 36.3)"/><use xlink:href="#K" transform="matrix(1,0,0,1,185,369.92499999999995) translate(47 57.9)"/></g><path d="M247.5 519h803v2h-805v-40.17h2zm971 2h-145.06v-2h143.06v-26.65h2z"/><path d="M1218.5 492.37h-2v-1.93l1 .9 1-.9zM251.14 479.83h-9.28l4.64-14.27z"/><path d="M252.5 480.83h-12l6-18.5zm-9.26-2h6.52l-3.26-10.03z"/><g><use xlink:href="#y" transform="matrix(1,0,0,1,1050.4886184771206,509.2) translate(0 14.4)"/></g><path d="M321 263.12h-2v-13.28h2z"/><path d="M321 249.87h-2v-1.8l1 .77 1-.78zM320 295.76l-3.6-11.04h7.2z"/><path d="M320 299l-4.64-14.28h2.1l2.54 7.8 2.54-7.8h2.1z"/><g><use xlink:href="#y" transform="matrix(1,0,0,1,308.525,263.1219981407577) translate(0 14.4)"/></g><path d="M240 300h160v40H240z" stroke="#000" stroke-width="2" fill="#fff"/><g><use xlink:href="#L" transform="matrix(1,0,0,1,245,305) translate(49.525 18.6)"/></g><defs><path d="M59-47c-2 24 18 29 38 22v24C64 9 27 4 27-40v-127H5v-23h24l9-43h21v43h35v23H59v120" id="M"/><path d="M141-36C126-15 110 5 73 4 37 3 15-17 15-53c-1-64 63-63 125-63 3-35-9-54-41-54-24 1-41 7-42 31l-33-3c5-37 33-52 76-52 45 0 72 20 72 64v82c-1 20 7 32 28 27v20c-31 9-61-2-59-35zM48-53c0 20 12 33 32 33 41-3 63-29 60-74-43 2-92-5-92 41" id="N"/><path d="M114-163C36-179 61-72 57 0H25l-1-190h30c1 12-1 29 2 39 6-27 23-49 58-41v29" id="O"/><path d="M177-190C167-65 218 103 67 71c-23-6-38-20-44-43l32-5c15 47 100 32 89-28v-30C133-14 115 1 83 1 29 1 15-40 15-95c0-56 16-97 71-98 29-1 48 16 59 35 1-10 0-23 2-32h30zM94-22c36 0 50-32 50-73 0-42-14-75-50-75-39 0-46 34-46 75s6 73 46 73" id="P"/><path d="M100-194c63 0 86 42 84 106H49c0 40 14 67 53 68 26 1 43-12 49-29l28 8c-11 28-37 45-77 45C44 4 14-33 15-96c1-61 26-98 85-98zm52 81c6-60-76-77-97-28-3 7-6 17-6 28h103" id="Q"/><path d="M68-38c1 34 0 65-14 84H32c9-13 17-26 17-46H33v-38h35" id="R"/><g id="a"><use transform="matrix(0.05,0,0,0.05,0,0)" xlink:href="#M"/><use transform="matrix(0.05,0,0,0.05,5,0)" xlink:href="#N"/><use transform="matrix(0.05,0,0,0.05,15,0)" xlink:href="#O"/><use transform="matrix(0.05,0,0,0.05,20.95,0)" xlink:href="#P"/><use transform="matrix(0.05,0,0,0.05,30.950000000000003,0)" xlink:href="#Q"/><use transform="matrix(0.05,0,0,0.05,40.95,0)" xlink:href="#M"/><use transform="matrix(0.05,0,0,0.05,45.95,0)" xlink:href="#R"/></g><g id="b"><use transform="matrix(0.05,0,0,0.05,0,0)" xlink:href="#M"/><use transform="matrix(0.05,0,0,0.05,5,0)" xlink:href="#N"/><use transform="matrix(0.05,0,0,0.05,15,0)" xlink:href="#O"/><use transform="matrix(0.05,0,0,0.05,20.95,0)" xlink:href="#P"/><use transform="matrix(0.05,0,0,0.05,30.950000000000003,0)" xlink:href="#Q"/><use transform="matrix(0.05,0,0,0.05,40.95,0)" xlink:href="#M"/></g><path d="M85-194c31 0 48 13 60 33l-1-100h32l1 261h-30c-2-10 0-23-3-31C134-8 116 4 85 4 32 4 16-35 15-94c0-66 23-100 70-100zm9 24c-40 0-46 34-46 75 0 40 6 74 45 74 42 0 51-32 51-76 0-42-9-74-50-73" id="S"/><g id="c"><use transform="matrix(0.05,0,0,0.05,0,0)" xlink:href="#S"/><use transform="matrix(0.05,0,0,0.05,10,0)" xlink:href="#N"/><use transform="matrix(0.05,0,0,0.05,20,0)" xlink:href="#M"/><use transform="matrix(0.05,0,0,0.05,25,0)" xlink:href="#N"/><use transform="matrix(0.05,0,0,0.05,35,0)" xlink:href="#R"/></g><path d="M141 0L90-78 38 0H4l68-98-65-92h35l48 74 47-74h35l-64 92 68 98h-35" id="T"/><path d="M24-231v-30h32v30H24zM24 0v-190h32V0H24" id="U"/><g id="d"><use transform="matrix(0.05,0,0,0.05,0,0)" xlink:href="#Q"/><use transform="matrix(0.05,0,0,0.05,10,0)" xlink:href="#T"/><use transform="matrix(0.05,0,0,0.05,19,0)" xlink:href="#U"/><use transform="matrix(0.05,0,0,0.05,22.95,0)" xlink:href="#M"/></g><g id="e"><use transform="matrix(0.05,0,0,0.05,0,0)" xlink:href="#S"/><use transform="matrix(0.05,0,0,0.05,10,0)" xlink:href="#N"/><use transform="matrix(0.05,0,0,0.05,20,0)" xlink:href="#M"/><use transform="matrix(0.05,0,0,0.05,25,0)" xlink:href="#N"/></g><path d="M233-177c-1 41-23 64-60 70L243 0h-38l-65-103H63V0H30v-248c88 3 205-21 203 71zM63-129c60-2 137 13 137-47 0-61-80-42-137-45v92" id="V"/><path d="M101-234c-31-9-42 10-38 44h38v23H63V0H32v-167H5v-23h27c-7-52 17-82 69-68v24" id="W"/><path d="M117-194c89-4 53 116 60 194h-32v-121c0-31-8-49-39-48C34-167 62-67 57 0H25l-1-190h30c1 10-1 24 2 32 11-22 29-35 61-36" id="X"/><path d="M96-169c-40 0-48 33-48 73s9 75 48 75c24 0 41-14 43-38l32 2c-6 37-31 61-74 61-59 0-76-41-82-99-10-93 101-131 147-64 4 7 5 14 7 22l-32 3c-4-21-16-35-41-35" id="Y"/><g id="f"><use transform="matrix(0.05,0,0,0.05,0,0)" xlink:href="#V"/><use transform="matrix(0.05,0,0,0.05,12.950000000000001,0)" xlink:href="#Q"/><use transform="matrix(0.05,0,0,0.05,22.950000000000003,0)" xlink:href="#W"/><use transform="matrix(0.05,0,0,0.05,27.950000000000003,0)" xlink:href="#Q"/><use transform="matrix(0.05,0,0,0.05,37.95,0)" xlink:href="#O"/><use transform="matrix(0.05,0,0,0.05,43.900000000000006,0)" xlink:href="#Q"/><use transform="matrix(0.05,0,0,0.05,53.900000000000006,0)" xlink:href="#X"/><use transform="matrix(0.05,0,0,0.05,63.900000000000006,0)" xlink:href="#Y"/><use transform="matrix(0.05,0,0,0.05,72.9,0)" xlink:href="#Q"/></g><path d="M212-179c-10-28-35-45-73-45-59 0-87 40-87 99 0 60 29 101 89 101 43 0 62-24 78-52l27 14C228-24 195 4 139 4 59 4 22-46 18-125c-6-104 99-153 187-111 19 9 31 26 39 46" id="Z"/><path d="M100-194c62-1 85 37 85 99 1 63-27 99-86 99S16-35 15-95c0-66 28-99 85-99zM99-20c44 1 53-31 53-75 0-43-8-75-51-75s-53 32-53 75 10 74 51 75" id="aa"/><path d="M84 4C-5 8 30-112 23-190h32v120c0 31 7 50 39 49 72-2 45-101 50-169h31l1 190h-30c-1-10 1-25-2-33-11 22-28 36-60 37" id="ab"/><g id="g"><use transform="matrix(0.05,0,0,0.05,0,0)" xlink:href="#Z"/><use transform="matrix(0.05,0,0,0.05,12.950000000000001,0)" xlink:href="#aa"/><use transform="matrix(0.05,0,0,0.05,22.950000000000003,0)" xlink:href="#ab"/><use transform="matrix(0.05,0,0,0.05,32.95,0)" xlink:href="#X"/><use transform="matrix(0.05,0,0,0.05,42.95,0)" xlink:href="#M"/></g><path d="M18-27v-27l151-64-151-65v-27l175 74v36" id="ac"/><use transform="matrix(0.05,0,0,0.05,0,0)" xlink:href="#ac" id="h"/><path d="M101-251c68 0 85 55 85 127S166 4 100 4C33 4 14-52 14-124c0-73 17-127 87-127zm-1 229c47 0 54-49 54-102s-4-102-53-102c-51 0-55 48-55 102 0 53 5 102 54 102" id="ad"/><use transform="matrix(0.05,0,0,0.05,0,0)" xlink:href="#ad" id="i"/><path d="M103-251c84 0 111 97 45 133-19 10-37 24-39 52H78c0-63 77-55 77-114 0-30-21-42-52-43-32 0-53 17-56 46l-32-2c7-45 34-72 88-72zM77 0v-35h34V0H77" id="ae"/><use transform="matrix(0.05,0,0,0.05,0,0)" xlink:href="#ae" id="j"/><path d="M137-103V0h-34v-103L8-248h37l75 118 75-118h37" id="af"/><path d="M135-143c-3-34-86-38-87 0 15 53 115 12 119 90S17 21 10-45l28-5c4 36 97 45 98 0-10-56-113-15-118-90-4-57 82-63 122-42 12 7 21 19 24 35" id="ag"/><g id="k"><use transform="matrix(0.05,0,0,0.05,0,0)" xlink:href="#af"/><use transform="matrix(0.05,0,0,0.05,10.35,0)" xlink:href="#Q"/><use transform="matrix(0.05,0,0,0.05,20.35,0)" xlink:href="#ag"/></g><path d="M248-111c6-24 9-61-24-58-72 9-57 108-77 169h-31l26-142c3-37-50-30-64-10C52-115 50-51 37 0H6l36-190h30c-1 10-6 24-4 32 13-43 101-52 105 5 13-22 29-41 61-41 90 0 28 129 23 194h-31" id="ah"/><path d="M165-48c-4 18 1 34 23 27l-3 20c-29 8-62 0-52-35h-2C116-14 99 4 63 4 30 4 8-16 8-49c0-68 71-67 138-67 10-26 0-56-31-54-26 1-42 9-47 31l-32-5c8-67 160-71 144 15-5 28-9 54-15 81zM42-50c3 52 80 24 89-6 7-12 7-24 11-38-47 1-103-4-100 44" id="ai"/><path d="M67-162c32-53 139-36 121 50C175-51 163 2 97 4 68 4 52-11 42-31 38 6 28 39 22 75H-9l50-265h29c-1 10 0 20-3 28zm89 36c0-26-10-43-35-43-54 0-67 50-69 103-1 29 14 45 42 46 53 0 62-58 62-106" id="aj"/><path d="M18-82l6-28h88l-6 28H18" id="ak"/><path d="M51-54c-9 22 5 41 31 30L79-1C43 14 10-4 19-52l22-115H19l5-23h22l19-43h21l-9 43h35l-4 23H73" id="al"/><path d="M198-190L69 30C53 58 25 83-20 72c4-11-1-27 19-22 33-1 43-29 59-52L20-190h32L79-34l84-156h35" id="am"/><path d="M111-194c62-3 86 47 72 106H45c-7 38 6 69 45 68 27-1 43-14 53-32l24 11C152-15 129 4 87 4 38 3 12-23 12-71c0-70 32-119 99-123zm44 81c14-66-71-72-95-28-4 8-8 17-11 28h106" id="an"/><g id="l"><use transform="matrix(0.05,0,0,0.05,0,0)" xlink:href="#ah"/><use transform="matrix(0.05,0,0,0.05,14.950000000000001,0)" xlink:href="#ai"/><use transform="matrix(0.05,0,0,0.05,24.950000000000003,0)" xlink:href="#aj"/><use transform="matrix(0.05,0,0,0.05,34.95,0)" xlink:href="#ak"/><use transform="matrix(0.05,0,0,0.05,40.900000000000006,0)" xlink:href="#al"/><use transform="matrix(0.05,0,0,0.05,45.900000000000006,0)" xlink:href="#am"/><use transform="matrix(0.05,0,0,0.05,54.900000000000006,0)" xlink:href="#aj"/><use transform="matrix(0.05,0,0,0.05,64.9,0)" xlink:href="#an"/></g><path d="M63-70H37l-4-178h34zM33 0v-35h34V0H33" id="ao"/><path d="M18-150v-26h174v26H18zm0 90v-26h174v26H18" id="ap"/><g id="m"><use transform="matrix(0.05,0,0,0.05,0,0)" xlink:href="#ao"/><use transform="matrix(0.05,0,0,0.05,5,0)" xlink:href="#ap"/></g><path d="M88-194c31-1 46 15 58 34l-1-101h50l1 261h-48c-2-10 0-23-3-31C134-8 116 4 84 4 32 4 16-41 15-95c0-56 19-97 73-99zm17 164c33 0 40-30 41-66 1-37-9-64-41-64s-38 30-39 65c0 43 13 65 39 65" id="aq"/><path d="M185-48c-13 30-37 53-82 52C43 2 14-33 14-96s30-98 90-98c62 0 83 45 84 108H66c0 31 8 55 39 56 18 0 30-7 34-22zm-45-69c5-46-57-63-70-21-2 6-4 13-4 21h74" id="ar"/><path d="M25 0v-261h50V0H25" id="as"/><path d="M115-3C79 11 28 4 28-45v-112H4v-33h27l15-45h31v45h36v33H77v99c-1 23 16 31 38 25v30" id="at"/><g id="n"><use transform="matrix(0.05,0,0,0.05,0,0)" xlink:href="#aq"/><use transform="matrix(0.05,0,0,0.05,10.950000000000001,0)" xlink:href="#ar"/><use transform="matrix(0.05,0,0,0.05,20.950000000000003,0)" xlink:href="#as"/><use transform="matrix(0.05,0,0,0.05,25.950000000000003,0)" xlink:href="#ar"/><use transform="matrix(0.05,0,0,0.05,35.95,0)" xlink:href="#at"/><use transform="matrix(0.05,0,0,0.05,41.900000000000006,0)" xlink:href="#ar"/></g><path d="M30-248c118-7 216 8 213 122C240-48 200 0 122 0H30v-248zM63-27c89 8 146-16 146-99s-60-101-146-95v194" id="au"/><path d="M210-169c-67 3-38 105-44 169h-31v-121c0-29-5-50-35-48C34-165 62-65 56 0H25l-1-190h30c1 10-1 24 2 32 10-44 99-50 107 0 11-21 27-35 58-36 85-2 47 119 55 194h-31v-121c0-29-5-49-35-48" id="av"/><g id="o"><use transform="matrix(0.05,0,0,0.05,0,0)" xlink:href="#au"/><use transform="matrix(0.05,0,0,0.05,12.950000000000001,0)" xlink:href="#Q"/><use transform="matrix(0.05,0,0,0.05,22.950000000000003,0)" xlink:href="#Y"/><use transform="matrix(0.05,0,0,0.05,31.950000000000003,0)" xlink:href="#O"/><use transform="matrix(0.05,0,0,0.05,37.900000000000006,0)" xlink:href="#Q"/><use transform="matrix(0.05,0,0,0.05,47.900000000000006,0)" xlink:href="#av"/><use transform="matrix(0.05,0,0,0.05,62.85,0)" xlink:href="#Q"/><use transform="matrix(0.05,0,0,0.05,72.85000000000001,0)" xlink:href="#X"/><use transform="matrix(0.05,0,0,0.05,82.85000000000001,0)" xlink:href="#M"/></g><g id="p"><use transform="matrix(0.05,0,0,0.05,0,0)" xlink:href="#V"/><use transform="matrix(0.05,0,0,0.05,12.950000000000001,0)" xlink:href="#Q"/><use transform="matrix(0.05,0,0,0.05,22.950000000000003,0)" xlink:href="#W"/><use transform="matrix(0.05,0,0,0.05,27.950000000000003,0)" xlink:href="#Q"/><use transform="matrix(0.05,0,0,0.05,37.95,0)" xlink:href="#O"/><use transform="matrix(0.05,0,0,0.05,43.900000000000006,0)" xlink:href="#Q"/><use transform="matrix(0.05,0,0,0.05,53.900000000000006,0)" xlink:href="#X"/><use transform="matrix(0.05,0,0,0.05,63.900000000000006,0)" xlink:href="#Y"/><use transform="matrix(0.05,0,0,0.05,72.9,0)" xlink:href="#Q"/></g><g id="r"><use transform="matrix(0.05,0,0,0.05,0,0)" xlink:href="#Z"/><use transform="matrix(0.05,0,0,0.05,12.950000000000001,0)" xlink:href="#aa"/><use transform="matrix(0.05,0,0,0.05,22.950000000000003,0)" xlink:href="#ab"/><use transform="matrix(0.05,0,0,0.05,32.95,0)" xlink:href="#X"/><use transform="matrix(0.05,0,0,0.05,42.95,0)" xlink:href="#M"/></g><g id="s"><use transform="matrix(0.05,0,0,0.05,0,0)" xlink:href="#ap"/><use transform="matrix(0.05,0,0,0.05,10.5,0)" xlink:href="#ap"/></g><path d="M24 0v-261h32V0H24" id="aw"/><g id="t"><use transform="matrix(0.05,0,0,0.05,0,0)" xlink:href="#S"/><use transform="matrix(0.05,0,0,0.05,10,0)" xlink:href="#Q"/><use transform="matrix(0.05,0,0,0.05,20,0)" xlink:href="#aw"/><use transform="matrix(0.05,0,0,0.05,23.95,0)" xlink:href="#Q"/><use transform="matrix(0.05,0,0,0.05,33.95,0)" xlink:href="#M"/><use transform="matrix(0.05,0,0,0.05,38.95,0)" xlink:href="#Q"/></g><g id="u"><use transform="matrix(0.05,0,0,0.05,0,0)" xlink:href="#ap"/><use transform="matrix(0.05,0,0,0.05,10.5,0)" xlink:href="#ap"/></g><path d="M108 0H70L1-190h34L89-25l56-165h34" id="ax"/><path d="M16-82v-28h88v28H16" id="ay"/><path d="M197 0v-115H63V0H30v-248h33v105h134v-105h34V0h-34" id="az"/><g id="v"><use transform="matrix(0.05,0,0,0.05,0,0)" xlink:href="#au"/><use transform="matrix(0.05,0,0,0.05,12.950000000000001,0)" xlink:href="#Q"/><use transform="matrix(0.05,0,0,0.05,22.950000000000003,0)" xlink:href="#ax"/><use transform="matrix(0.05,0,0,0.05,31.950000000000003,0)" xlink:href="#U"/><use transform="matrix(0.05,0,0,0.05,35.900000000000006,0)" xlink:href="#Y"/><use transform="matrix(0.05,0,0,0.05,44.900000000000006,0)" xlink:href="#Q"/><use transform="matrix(0.05,0,0,0.05,54.900000000000006,0)" xlink:href="#ay"/><use transform="matrix(0.05,0,0,0.05,60.85,0)" xlink:href="#az"/><use transform="matrix(0.05,0,0,0.05,73.80000000000001,0)" xlink:href="#aa"/><use transform="matrix(0.05,0,0,0.05,83.80000000000001,0)" xlink:href="#ag"/><use transform="matrix(0.05,0,0,0.05,92.80000000000001,0)" xlink:href="#M"/></g><path d="M240 0l2-218c-23 76-54 145-80 218h-23L58-218 59 0H30v-248h44l77 211c21-75 51-140 76-211h43V0h-30" id="aA"/><path d="M179-190L93 31C79 59 56 82 12 73V49c39 6 53-20 64-50L1-190h34L92-34l54-156h33" id="aB"/><g id="w"><use transform="matrix(0.05,0,0,0.05,0,0)" xlink:href="#aA"/><use transform="matrix(0.05,0,0,0.05,14.950000000000001,0)" xlink:href="#Q"/><use transform="matrix(0.05,0,0,0.05,24.950000000000003,0)" xlink:href="#av"/><use transform="matrix(0.05,0,0,0.05,39.900000000000006,0)" xlink:href="#aa"/><use transform="matrix(0.05,0,0,0.05,49.900000000000006,0)" xlink:href="#O"/><use transform="matrix(0.05,0,0,0.05,55.85,0)" xlink:href="#aB"/></g><path d="M115-194c55 1 70 41 70 98S169 2 115 4C84 4 66-9 55-30l1 105H24l-1-265h31l2 30c10-21 28-34 59-34zm-8 174c40 0 45-34 45-75s-6-73-45-74c-42 0-51 32-51 76 0 43 10 73 51 73" id="aC"/><g id="x"><use transform="matrix(0.05,0,0,0.05,0,0)" xlink:href="#Z"/><use transform="matrix(0.05,0,0,0.05,12.950000000000001,0)" xlink:href="#aa"/><use transform="matrix(0.05,0,0,0.05,22.950000000000003,0)" xlink:href="#aC"/><use transform="matrix(0.05,0,0,0.05,32.95,0)" xlink:href="#aB"/></g><path d="M190 0L58-211 59 0H30v-248h39L202-35l-2-213h31V0h-41" id="aD"/><g id="y"><use transform="matrix(0.05,0,0,0.05,0,0)" xlink:href="#aD"/><use transform="matrix(0.05,0,0,0.05,12.950000000000001,0)" xlink:href="#aa"/></g><g id="z"><use transform="matrix(0.05,0,0,0.05,0,0)" xlink:href="#Z"/><use transform="matrix(0.05,0,0,0.05,12.950000000000001,0)" xlink:href="#aa"/><use transform="matrix(0.05,0,0,0.05,22.950000000000003,0)" xlink:href="#ab"/><use transform="matrix(0.05,0,0,0.05,32.95,0)" xlink:href="#X"/><use transform="matrix(0.05,0,0,0.05,42.95,0)" xlink:href="#M"/></g><use transform="matrix(0.05,0,0,0.05,0,0)" xlink:href="#ap" id="A"/><use transform="matrix(0.05,0,0,0.05,0,0)" xlink:href="#ad" id="B"/><g id="C"><use transform="matrix(0.05,0,0,0.05,0,0)" xlink:href="#ah"/><use transform="matrix(0.05,0,0,0.05,14.950000000000001,0)" xlink:href="#ai"/><use transform="matrix(0.05,0,0,0.05,24.950000000000003,0)" xlink:href="#aj"/><use transform="matrix(0.05,0,0,0.05,34.95,0)" xlink:href="#ak"/><use transform="matrix(0.05,0,0,0.05,40.900000000000006,0)" xlink:href="#al"/><use transform="matrix(0.05,0,0,0.05,45.900000000000006,0)" xlink:href="#am"/><use transform="matrix(0.05,0,0,0.05,54.900000000000006,0)" xlink:href="#aj"/><use transform="matrix(0.05,0,0,0.05,64.9,0)" xlink:href="#an"/></g><path d="M30-147c31-64 166-65 159 27C183-49 158 1 86 4 9 8 1-88 30-147zM88-20c53 0 68-48 68-100 0-31-11-51-44-50-52 1-68 46-68 97 0 32 13 53 44 53" id="aE"/><path d="M133-28C103 26-5 8 13-77c13-62 24-115 90-117 29-1 46 15 56 35l19-102h32L160 0h-30zM45-64c-2 27 10 43 35 43 54-1 69-50 69-103 0-29-15-46-42-46-53-1-58 58-62 106" id="aF"/><path d="M50-231l6-30h32l-6 30H50zM6 0l37-190h31L37 0H6" id="aG"/><path d="M76-167L44 0H12l33-167H18l4-23h27c3-47 25-81 82-69l-4 24c-35-8-44 15-46 45h37l-5 23H76" id="aH"/><path d="M66-151c12-25 30-51 66-40l-6 26C45-176 58-65 38 0H6l36-190h30" id="aI"/><g id="D"><use transform="matrix(0.05,0,0,0.05,0,0)" xlink:href="#ak"/><use transform="matrix(0.05,0,0,0.05,5.95,0)" xlink:href="#ah"/><use transform="matrix(0.05,0,0,0.05,20.900000000000002,0)" xlink:href="#aE"/><use transform="matrix(0.05,0,0,0.05,30.900000000000002,0)" xlink:href="#aF"/><use transform="matrix(0.05,0,0,0.05,40.900000000000006,0)" xlink:href="#aG"/><use transform="matrix(0.05,0,0,0.05,44.85000000000001,0)" xlink:href="#aH"/><use transform="matrix(0.05,0,0,0.05,49.85000000000001,0)" xlink:href="#aG"/><use transform="matrix(0.05,0,0,0.05,53.80000000000001,0)" xlink:href="#an"/><use transform="matrix(0.05,0,0,0.05,63.80000000000001,0)" xlink:href="#aI"/></g><g id="E"><use transform="matrix(0.05,0,0,0.05,0,0)" xlink:href="#ap"/><use transform="matrix(0.05,0,0,0.05,10.5,0)" xlink:href="#ap"/></g><path d="M133-34C117-15 103 5 69 4 32 3 11-16 11-54c-1-60 55-63 116-61 1-26-3-47-28-47-18 1-26 9-28 27l-52-2c7-38 36-58 82-57s74 22 75 68l1 82c-1 14 12 18 25 15v27c-30 8-71 5-69-32zm-48 3c29 0 43-24 42-57-32 0-66-3-65 30 0 17 8 27 23 27" id="aJ"/><path d="M231 0h-52l-39-155L100 0H48L-1-190h46L77-45c9-52 24-97 36-145h53l37 145 32-145h46" id="aK"/><path d="M123 10C108 53 80 86 19 72V37c35 8 53-11 59-39L3-190h52l48 148c12-52 28-100 44-148h51" id="aL"/><path d="M137-138c1-29-70-34-71-4 15 46 118 7 119 86 1 83-164 76-172 9l43-7c4 19 20 25 44 25 33 8 57-30 24-41C81-84 22-81 20-136c-2-80 154-74 161-7" id="aM"/><g id="F"><use transform="matrix(0.05,0,0,0.05,0,0)" xlink:href="#aJ"/><use transform="matrix(0.05,0,0,0.05,10,0)" xlink:href="#as"/><use transform="matrix(0.05,0,0,0.05,15,0)" xlink:href="#aK"/><use transform="matrix(0.05,0,0,0.05,29,0)" xlink:href="#aJ"/><use transform="matrix(0.05,0,0,0.05,39,0)" xlink:href="#aL"/><use transform="matrix(0.05,0,0,0.05,49,0)" xlink:href="#aM"/></g><path d="M121-226c-27-7-43 5-38 36h38v33H83V0H34v-157H6v-33h28c-9-59 32-81 87-68v32" id="aN"/><path d="M135-150c-39-12-60 13-60 57V0H25l-1-190h47c2 13-1 29 3 40 6-28 27-53 61-41v41" id="aO"/><path d="M110-194c64 0 96 36 96 99 0 64-35 99-97 99-61 0-95-36-95-99 0-62 34-99 96-99zm-1 164c35 0 45-28 45-65 0-40-10-65-43-65-34 0-45 26-45 65 0 36 10 65 43 65" id="aP"/><path d="M220-157c-53 9-28 100-34 157h-49v-107c1-27-5-49-29-50C55-147 81-57 75 0H25l-1-190h47c2 12-1 28 3 38 10-53 101-56 108 0 13-22 24-43 59-42 82 1 51 116 57 194h-49v-107c-1-25-5-48-29-50" id="aQ"/><g id="G"><use transform="matrix(0.05,0,0,0.05,0,0)" xlink:href="#aN"/><use transform="matrix(0.05,0,0,0.05,5.95,0)" xlink:href="#aO"/><use transform="matrix(0.05,0,0,0.05,12.949999999999998,0)" xlink:href="#aP"/><use transform="matrix(0.05,0,0,0.05,23.9,0)" xlink:href="#aQ"/></g><path d="M32 76v-337h29V76H32" id="aR"/><g id="H"><use transform="matrix(0.05,0,0,0.05,0,0)" xlink:href="#aR"/><use transform="matrix(0.05,0,0,0.05,4.65,0)" xlink:href="#aR"/></g><g id="I"><use transform="matrix(0.05,0,0,0.05,0,0)" xlink:href="#at"/><use transform="matrix(0.05,0,0,0.05,5.95,0)" xlink:href="#aP"/><use transform="matrix(0.05,0,0,0.05,16.900000000000002,0)" xlink:href="#aN"/><use transform="matrix(0.05,0,0,0.05,22.85,0)" xlink:href="#aO"/><use transform="matrix(0.05,0,0,0.05,29.85,0)" xlink:href="#aP"/><use transform="matrix(0.05,0,0,0.05,40.800000000000004,0)" xlink:href="#aQ"/></g><path d="M30-248c87 1 191-15 191 75 0 78-77 80-158 76V0H30v-248zm33 125c57 0 124 11 124-50 0-59-68-47-124-48v98" id="aS"/><g id="J"><use transform="matrix(0.05,0,0,0.05,0,0)" xlink:href="#aS"/><use transform="matrix(0.05,0,0,0.05,12,0)" xlink:href="#Q"/><use transform="matrix(0.05,0,0,0.05,22,0)" xlink:href="#O"/><use transform="matrix(0.05,0,0,0.05,27.950000000000003,0)" xlink:href="#ag"/><use transform="matrix(0.05,0,0,0.05,36.95,0)" xlink:href="#U"/><use transform="matrix(0.05,0,0,0.05,40.900000000000006,0)" xlink:href="#ag"/><use transform="matrix(0.05,0,0,0.05,49.900000000000006,0)" xlink:href="#M"/><use transform="matrix(0.05,0,0,0.05,54.900000000000006,0)" xlink:href="#Q"/><use transform="matrix(0.05,0,0,0.05,64.9,0)" xlink:href="#X"/><use transform="matrix(0.05,0,0,0.05,74.9,0)" xlink:href="#M"/></g><path d="M140-251c81 0 123 46 123 126C263-46 219 4 140 4 59 4 17-45 17-125s42-126 123-126zm0 227c63 0 89-41 89-101s-29-99-89-99c-61 0-89 39-89 99S79-25 140-24" id="aT"/><g id="K"><use transform="matrix(0.05,0,0,0.05,0,0)" xlink:href="#aT"/><use transform="matrix(0.05,0,0,0.05,14,0)" xlink:href="#ab"/><use transform="matrix(0.05,0,0,0.05,24,0)" xlink:href="#M"/></g><path d="M33 0v-248h34V0H33" id="aU"/><g id="L"><use transform="matrix(0.05,0,0,0.05,0,0)" xlink:href="#aU"/><use transform="matrix(0.05,0,0,0.05,5,0)" xlink:href="#P"/><use transform="matrix(0.05,0,0,0.05,15,0)" xlink:href="#X"/><use transform="matrix(0.05,0,0,0.05,25,0)" xlink:href="#aa"/><use transform="matrix(0.05,0,0,0.05,35,0)" xlink:href="#O"/><use transform="matrix(0.05,0,0,0.05,40.95,0)" xlink:href="#Q"/></g></defs></g></svg>