<svg xmlns="http://www.w3.org/2000/svg" xmlns:xlink="http://www.w3.org/1999/xlink" xmlns:lucid="lucid" width="1246" height="393.05"><g transform="translate(-160 -210)" lucid:page-tab-id="pZ0bPkCKIEga"><path d="M0 0h1760v1360H0z" fill="#fff"/><path d="M201.33 260H360l-21.33 80H180z" stroke="#000" stroke-width="2" fill="#fff"/><use xlink:href="#a" transform="matrix(1,0,0,1,185,265) translate(59.525 17)"/><use xlink:href="#b" transform="matrix(1,0,0,1,185,265) translate(42.025 38.6)"/><use xlink:href="#c" transform="matrix(1,0,0,1,185,265) translate(92.975 38.6)"/><use xlink:href="#b" transform="matrix(1,0,0,1,185,265) translate(19.049999999999997 60.2)"/><use xlink:href="#d" transform="matrix(1,0,0,1,185,265) translate(70 60.2)"/><use xlink:href="#e" transform="matrix(1,0,0,1,185,265) translate(115.95 60.2)"/><path d="M477 240l80 60-80 60-80-60z" stroke="#000" stroke-width="2" fill="#fff"/><use xlink:href="#f" transform="matrix(1,0,0,1,402,245) translate(43.575 37)"/><use xlink:href="#g" transform="matrix(1,0,0,1,402,245) translate(35.55 58.6)"/><use xlink:href="#h" transform="matrix(1,0,0,1,402,245) translate(100.5 58.6)"/><use xlink:href="#i" transform="matrix(1,0,0,1,402,245) translate(39.025 80.20000000000002)"/><use xlink:href="#j" transform="matrix(1,0,0,1,402,245) translate(44.025 80.20000000000002)"/><use xlink:href="#k" transform="matrix(1,0,0,1,402,245) translate(100.975 80.20000000000002)"/><path d="M351.37 300h25.46" stroke="#000" stroke-width="2" fill="none"/><path d="M351.4 301h-1.3l.53-2h.76z"/><path d="M392.1 300l-14.27 4.64v-9.28z" stroke="#000" stroke-width="2"/><path d="M200 440h160v80H200z" stroke="#000" stroke-width="2" fill="#fff"/><use xlink:href="#l" transform="matrix(1,0,0,1,205,445.00000000000006) translate(48.05 17)"/><use xlink:href="#m" transform="matrix(1,0,0,1,205,445.00000000000006) translate(18.074999999999996 38.6)"/><use xlink:href="#n" transform="matrix(1,0,0,1,205,445.00000000000006) translate(2.5999999999999943 60.2)"/><use xlink:href="#o" transform="matrix(1,0,0,1,205,445.00000000000006) translate(70.44999999999999 60.2)"/><use xlink:href="#p" transform="matrix(1,0,0,1,205,445.00000000000006) translate(95.44999999999999 60.2)"/><path d="M640 260h100v80H640z" stroke="#000" stroke-width="2" fill="#fff"/><use xlink:href="#q" transform="matrix(1,0,0,1,645,265) translate(5.049999999999997 17.5)"/><use xlink:href="#r" transform="matrix(1,0,0,1,645,265) translate(7.049999999999997 39.1)"/><use xlink:href="#s" transform="matrix(1,0,0,1,645,265) translate(5 60.7)"/><use xlink:href="#t" transform="matrix(1,0,0,1,645,265) translate(54 60.7)"/><path d="M440 431.8h97v96.4h-97z" stroke="#000" stroke-width="2" fill="#fff"/><use xlink:href="#u" transform="matrix(1,0,0,1,445,436.80000000000007) translate(11.099999999999994 25.5)"/><use xlink:href="#v" transform="matrix(1,0,0,1,445,436.80000000000007) translate(3.049999999999997 47.1)"/><use xlink:href="#w" transform="matrix(1,0,0,1,445,436.80000000000007) translate(11.25 68.7)"/><path d="M860 235l65 65-65 65-65-65z" stroke="#000" stroke-width="2" fill="#fff"/><use xlink:href="#x" transform="matrix(1,0,0,1,800,240) translate(22.049999999999997 42)"/><use xlink:href="#y" transform="matrix(1,0,0,1,800,240) translate(38 63.6)"/><use xlink:href="#z" transform="matrix(1,0,0,1,800,240) translate(34.5 85.20000000000002)"/><use xlink:href="#A" transform="matrix(1,0,0,1,800,240) translate(60.5 85.20000000000002)"/><use xlink:href="#B" transform="matrix(1,0,0,1,800,240) translate(75.5 85.20000000000002)"/><path d="M944.7 301h-17.3v-2h17.3zm55.28 0h-25.93v-2h25.93z"/><path d="M927.44 301h-2.03l1-1-1-1h2.04zM1015.25 300l-14.27 4.64v-9.28z"/><path d="M1018.48 300l-18.5 6v-12zm-16.5 3.26L1012 300l-10.02-3.26z"/><use xlink:href="#C" transform="matrix(1,0,0,1,944.7015432981127,289.2) translate(0 14.4)"/><path d="M1100 230l80 70-80 70-80-70z" stroke="#000" stroke-width="2" fill="#fff"/><use xlink:href="#D" transform="matrix(1,0,0,1,1025,235) translate(37.55 47)"/><use xlink:href="#E" transform="matrix(1,0,0,1,1025,235) translate(46.4 68.60000000000001)"/><use xlink:href="#F" transform="matrix(1,0,0,1,1025,235) translate(72.4 68.60000000000001)"/><use xlink:href="#G" transform="matrix(1,0,0,1,1025,235) translate(94.30000000000001 68.60000000000001)"/><use xlink:href="#H" transform="matrix(1,0,0,1,1025,235) translate(33.599999999999994 90.20000000000002)"/><use xlink:href="#I" transform="matrix(1,0,0,1,1025,235) translate(59.599999999999994 90.20000000000002)"/><path d="M1184.6 301h-2.08v-2h2.07zm38.9 0h-9.56v-2h9.56z"/><path d="M1182.54 301h-2.16l1.14-1-1.14-1h2.16zM1238.76 300l-14.26 4.64v-9.28z"/><path d="M1242 300l-18.5 6v-12zm-16.5 3.26l10.03-3.26-10.03-3.26z"/><use xlink:href="#C" transform="matrix(1,0,0,1,1184.5945478380904,289.2) translate(0 14.4)"/><path d="M1243 270h143v60h-143z" stroke="#000" stroke-width="2" fill="#a3d977"/><use xlink:href="#J" transform="matrix(1,0,0,1,1248,275) translate(17.599999999999994 14.4)"/><use xlink:href="#K" transform="matrix(1,0,0,1,1248,275) translate(10.599999999999994 36)"/><use xlink:href="#L" transform="matrix(1,0,0,1,1248,275) translate(80.45 36)"/><use xlink:href="#M" transform="matrix(1,0,0,1,1248,275) translate(66.5 57.6)"/><path d="M861 381.78h-2V367.4h2z"/><path d="M861 367.44h-2v-2.03l1 1 1-1zM860 415.5l-3.94-12.12h7.88z"/><path d="M860 418.75l-5-15.37h2.1l2.9 8.9 2.9-8.9h2.1z"/><use xlink:href="#N" transform="matrix(1,0,0,1,848.525,381.78210678118654) translate(0 14.4)"/><path d="M860 420l80 60-80 60-80-60z" stroke="#000" stroke-width="2" fill="#fff"/><use xlink:href="#O" transform="matrix(1,0,0,1,785,425.00000000000006) translate(34.574999999999996 37)"/><use xlink:href="#P" transform="matrix(1,0,0,1,785,425.00000000000006) translate(30.099999999999994 58.6)"/><use xlink:href="#Q" transform="matrix(1,0,0,1,785,425.00000000000006) translate(98.9 58.6)"/><use xlink:href="#R" transform="matrix(1,0,0,1,785,425.00000000000006) translate(45.5 80.20000000000002)"/><path d="M962.52 481h-19.85v-2h19.85zm37.46-180h-18.9v168.2h-2V299h20.9z"/><path d="M942.7 481h-2.37l1.34-1-1.34-1h2.36zM1015.25 300l-14.27 4.64v-9.28z"/><path d="M1018.48 300l-18.5 6v-12zm-16.5 3.26L1012 300l-10.02-3.26z"/><use xlink:href="#C" transform="matrix(1,0,0,1,962.5236987396447,469.20000000000005) translate(0 14.4)"/><path d="M1101 384.24h-2v-11.9h2z"/><path d="M1101 372.35h-2v-1.9l1 .88 1-.88zM1100 415.5l-3.14-9.66h6.28z"/><path d="M1100 418.75l-4.2-12.9h2.1l2.1 6.43 2.1-6.44h2.1z"/><use xlink:href="#N" transform="matrix(1,0,0,1,1088.525,384.2393841132959) translate(0 14.4)"/><path d="M1100 420l80 60-80 60-80-60z" stroke="#000" stroke-width="2" fill="#fff"/><use xlink:href="#D" transform="matrix(1,0,0,1,1025,425.00000000000006) translate(37.55 37)"/><use xlink:href="#E" transform="matrix(1,0,0,1,1025,425.00000000000006) translate(34.9 58.6)"/><use xlink:href="#S" transform="matrix(1,0,0,1,1025,425.00000000000006) translate(60.9 58.6)"/><use xlink:href="#G" transform="matrix(1,0,0,1,1025,425.00000000000006) translate(105.80000000000001 58.6)"/><use xlink:href="#H" transform="matrix(1,0,0,1,1025,425.00000000000006) translate(41.525 80.20000000000002)"/><use xlink:href="#T" transform="matrix(1,0,0,1,1025,425.00000000000006) translate(67.525 80.20000000000002)"/><path d="M1197.16 481h-14.5v-2h14.5z"/><path d="M1182.7 481h-2.37l1.34-1-1.34-1h2.36zM1238.76 480l-12.25 3.98v-7.96z"/><path d="M1242 480l-15.5 5.03v-2.1l9.03-2.93-9.02-2.93v-2.1z"/><g><use xlink:href="#C" transform="matrix(1,0,0,1,1197.1583333333333,469.20000000000005) translate(0 14.4)"/></g><path d="M1243 443.36h143v73.28h-143z" stroke="#000" stroke-width="2" fill="#99d2f2"/><g><use xlink:href="#U" transform="matrix(1,0,0,1,1248,448.35615886704096) translate(4.299999999999997 24.799999999999997)"/><use xlink:href="#V" transform="matrix(1,0,0,1,1248,448.35615886704096) translate(64.2 24.799999999999997)"/><use xlink:href="#W" transform="matrix(1,0,0,1,1248,448.35615886704096) translate(16.574999999999996 46.4)"/><use xlink:href="#X" transform="matrix(1,0,0,1,1248,448.35615886704096) translate(34.52499999999999 46.4)"/></g><path d="M560 445.9h133v68.2H560z" stroke="#000" stroke-width="2" fill="#ff8f80"/><g><use xlink:href="#Y" transform="matrix(1,0,0,1,565,450.9000000000001) translate(21.549999999999997 22.299999999999997)"/><use xlink:href="#Z" transform="matrix(1,0,0,1,565,450.9000000000001) translate(54 43.9)"/></g><path d="M362 480h58.5" stroke="#000" stroke-width="2" fill="none"/><path d="M362.03 481H361v-2h1.03z"/><path d="M435.76 480l-14.26 4.64v-9.28z" stroke="#000" stroke-width="2"/><path d="M367.02 401.13H281v19.37h-2v-21.38h88.02zm110.98 0h-88.02v-2H476v-36.88h2z"/><path d="M478 362.28h-2v-1.78l1 .75 1-.75zM280 435.76l-4.64-14.26h9.28z"/><path d="M280 439l-6-18.5h12zm-3.26-16.5l3.26 10.03 3.26-10.03z"/><g><use xlink:href="#N" transform="matrix(1,0,0,1,367.025,389.325) translate(0 14.4)"/></g><path d="M488.5 429.8v-43.9h203v-26.4" stroke="#000" stroke-width="2" fill="none"/><path d="M489.5 430.8h-2v-1.03h2z"/><path d="M691.5 344.24l4.64 14.26h-9.28z" stroke="#000" stroke-width="2"/><path d="M566.66 301h-7v-2h7zm53.84 0H596v-2h24.5z"/><path d="M559.7 301h-2.37l1.34-1-1.34-1h2.36zM635.76 300l-14.26 4.64v-9.28z"/><path d="M639 300l-18.5 6v-12zm-16.5 3.26l10.03-3.26-10.03-3.26z"/><g><use xlink:href="#C" transform="matrix(1,0,0,1,566.6599834983498,289.2) translate(0 14.4)"/></g><path d="M742 300h33.08" stroke="#000" stroke-width="2" fill="none"/><path d="M742.03 301H741v-2h1.03z"/><path d="M790.35 300l-14.27 4.64v-9.28z" stroke="#000" stroke-width="2"/><path d="M629 580.25h210.46v2H627V533.6h2zm472 2H862.4v-2H1099v-38h2z"/><path d="M1101 542.28h-2v-1.78l1 .75 1-.75zM632.65 532.6h-9.27l4.63-14.26z"/><path d="M634.02 533.6H622l6-18.5zm-9.27-2h6.52L628 521.57z"/><g><use xlink:href="#N" transform="matrix(1,0,0,1,839.4563031971962,570.4500000000002) translate(0 14.4)"/></g><path d="M724.7 481h-12.2v-2h12.2zm52.63 0h-29.7v-2h29.7z"/><path d="M778.33 480l1.34 1h-2.36v-2h2.37zM711.5 484.64L697.24 480l14.26-4.64z"/><path d="M712.5 486l-18.5-6 18.5-6zm-12.03-6l10.03 3.26v-6.52z"/><g><use xlink:href="#N" transform="matrix(1,0,0,1,724.6916666666666,469.20000000000005) translate(0 14.4)"/></g><defs><path d="M59-47c-2 24 18 29 38 22v24C64 9 27 4 27-40v-127H5v-23h24l9-43h21v43h35v23H59v120" id="aa"/><path d="M141-36C126-15 110 5 73 4 37 3 15-17 15-53c-1-64 63-63 125-63 3-35-9-54-41-54-24 1-41 7-42 31l-33-3c5-37 33-52 76-52 45 0 72 20 72 64v82c-1 20 7 32 28 27v20c-31 9-61-2-59-35zM48-53c0 20 12 33 32 33 41-3 63-29 60-74-43 2-92-5-92 41" id="ab"/><path d="M114-163C36-179 61-72 57 0H25l-1-190h30c1 12-1 29 2 39 6-27 23-49 58-41v29" id="ac"/><path d="M177-190C167-65 218 103 67 71c-23-6-38-20-44-43l32-5c15 47 100 32 89-28v-30C133-14 115 1 83 1 29 1 15-40 15-95c0-56 16-97 71-98 29-1 48 16 59 35 1-10 0-23 2-32h30zM94-22c36 0 50-32 50-73 0-42-14-75-50-75-39 0-46 34-46 75s6 73 46 73" id="ad"/><path d="M100-194c63 0 86 42 84 106H49c0 40 14 67 53 68 26 1 43-12 49-29l28 8c-11 28-37 45-77 45C44 4 14-33 15-96c1-61 26-98 85-98zm52 81c6-60-76-77-97-28-3 7-6 17-6 28h103" id="ae"/><path d="M68-38c1 34 0 65-14 84H32c9-13 17-26 17-46H33v-38h35" id="af"/><g id="a"><use transform="matrix(0.05,0,0,0.05,0,0)" xlink:href="#aa"/><use transform="matrix(0.05,0,0,0.05,5,0)" xlink:href="#ab"/><use transform="matrix(0.05,0,0,0.05,15,0)" xlink:href="#ac"/><use transform="matrix(0.05,0,0,0.05,20.95,0)" xlink:href="#ad"/><use transform="matrix(0.05,0,0,0.05,30.950000000000003,0)" xlink:href="#ae"/><use transform="matrix(0.05,0,0,0.05,40.95,0)" xlink:href="#aa"/><use transform="matrix(0.05,0,0,0.05,45.95,0)" xlink:href="#af"/></g><g id="b"><use transform="matrix(0.05,0,0,0.05,0,0)" xlink:href="#aa"/><use transform="matrix(0.05,0,0,0.05,5,0)" xlink:href="#ab"/><use transform="matrix(0.05,0,0,0.05,15,0)" xlink:href="#ac"/><use transform="matrix(0.05,0,0,0.05,20.95,0)" xlink:href="#ad"/><use transform="matrix(0.05,0,0,0.05,30.950000000000003,0)" xlink:href="#ae"/><use transform="matrix(0.05,0,0,0.05,40.95,0)" xlink:href="#aa"/></g><path d="M85-194c31 0 48 13 60 33l-1-100h32l1 261h-30c-2-10 0-23-3-31C134-8 116 4 85 4 32 4 16-35 15-94c0-66 23-100 70-100zm9 24c-40 0-46 34-46 75 0 40 6 74 45 74 42 0 51-32 51-76 0-42-9-74-50-73" id="ag"/><g id="c"><use transform="matrix(0.05,0,0,0.05,0,0)" xlink:href="#ag"/><use transform="matrix(0.05,0,0,0.05,10,0)" xlink:href="#ab"/><use transform="matrix(0.05,0,0,0.05,20,0)" xlink:href="#aa"/><use transform="matrix(0.05,0,0,0.05,25,0)" xlink:href="#ab"/></g><path d="M117-194c89-4 53 116 60 194h-32v-121c0-31-8-49-39-48C34-167 62-67 57 0H25l-1-190h30c1 10-1 24 2 32 11-22 29-35 61-36" id="ah"/><g id="d"><use transform="matrix(0.05,0,0,0.05,0,0)" xlink:href="#ae"/><use transform="matrix(0.05,0,0,0.05,10,0)" xlink:href="#ah"/><use transform="matrix(0.05,0,0,0.05,20,0)" xlink:href="#aa"/><use transform="matrix(0.05,0,0,0.05,25,0)" xlink:href="#ae"/><use transform="matrix(0.05,0,0,0.05,35,0)" xlink:href="#ac"/></g><g id="e"><use transform="matrix(0.05,0,0,0.05,0,0)" xlink:href="#ag"/><use transform="matrix(0.05,0,0,0.05,10,0)" xlink:href="#ab"/><use transform="matrix(0.05,0,0,0.05,20,0)" xlink:href="#aa"/><use transform="matrix(0.05,0,0,0.05,25,0)" xlink:href="#ab"/></g><path d="M108 0H70L1-190h34L89-25l56-165h34" id="ai"/><path d="M24-231v-30h32v30H24zM24 0v-190h32V0H24" id="aj"/><path d="M115-194c53 0 69 39 70 98 0 66-23 100-70 100C84 3 66-7 56-30L54 0H23l1-261h32v101c10-23 28-34 59-34zm-8 174c40 0 45-34 45-75 0-40-5-75-45-74-42 0-51 32-51 76 0 43 10 73 51 73" id="ak"/><path d="M24 0v-261h32V0H24" id="al"/><g id="f"><use transform="matrix(0.05,0,0,0.05,0,0)" xlink:href="#ai"/><use transform="matrix(0.05,0,0,0.05,9,0)" xlink:href="#ab"/><use transform="matrix(0.05,0,0,0.05,19,0)" xlink:href="#ac"/><use transform="matrix(0.05,0,0,0.05,24.95,0)" xlink:href="#aj"/><use transform="matrix(0.05,0,0,0.05,28.899999999999995,0)" xlink:href="#ab"/><use transform="matrix(0.05,0,0,0.05,38.9,0)" xlink:href="#ak"/><use transform="matrix(0.05,0,0,0.05,48.9,0)" xlink:href="#al"/><use transform="matrix(0.05,0,0,0.05,52.85,0)" xlink:href="#ae"/></g><path d="M115-194c55 1 70 41 70 98S169 2 115 4C84 4 66-9 55-30l1 105H24l-1-265h31l2 30c10-21 28-34 59-34zm-8 174c40 0 45-34 45-75s-6-73-45-74c-42 0-51 32-51 76 0 43 10 73 51 73" id="am"/><path d="M135-143c-3-34-86-38-87 0 15 53 115 12 119 90S17 21 10-45l28-5c4 36 97 45 98 0-10-56-113-15-118-90-4-57 82-63 122-42 12 7 21 19 24 35" id="an"/><g id="g"><use transform="matrix(0.05,0,0,0.05,0,0)" xlink:href="#am"/><use transform="matrix(0.05,0,0,0.05,10,0)" xlink:href="#ac"/><use transform="matrix(0.05,0,0,0.05,15.949999999999998,0)" xlink:href="#ae"/><use transform="matrix(0.05,0,0,0.05,25.950000000000003,0)" xlink:href="#an"/><use transform="matrix(0.05,0,0,0.05,34.95,0)" xlink:href="#ae"/><use transform="matrix(0.05,0,0,0.05,44.95,0)" xlink:href="#ah"/><use transform="matrix(0.05,0,0,0.05,54.95,0)" xlink:href="#aa"/></g><g id="h"><use transform="matrix(0.05,0,0,0.05,0,0)" xlink:href="#aj"/><use transform="matrix(0.05,0,0,0.05,3.95,0)" xlink:href="#ah"/></g><path d="M96-169c-40 0-48 33-48 73s9 75 48 75c24 0 41-14 43-38l32 2c-6 37-31 61-74 61-59 0-76-41-82-99-10-93 101-131 147-64 4 7 5 14 7 22l-32 3c-4-21-16-35-41-35" id="ao"/><g id="j"><use transform="matrix(0.05,0,0,0.05,0,0)" xlink:href="#ag"/><use transform="matrix(0.05,0,0,0.05,10,0)" xlink:href="#ae"/><use transform="matrix(0.05,0,0,0.05,20,0)" xlink:href="#ai"/><use transform="matrix(0.05,0,0,0.05,29,0)" xlink:href="#aj"/><use transform="matrix(0.05,0,0,0.05,32.95,0)" xlink:href="#ao"/><use transform="matrix(0.05,0,0,0.05,41.95,0)" xlink:href="#ae"/></g><path d="M103-251c84 0 111 97 45 133-19 10-37 24-39 52H78c0-63 77-55 77-114 0-30-21-42-52-43-32 0-53 17-56 46l-32-2c7-45 34-72 88-72zM77 0v-35h34V0H77" id="ap"/><use transform="matrix(0.05,0,0,0.05,0,0)" xlink:href="#ap" id="k"/><path d="M212-179c-10-28-35-45-73-45-59 0-87 40-87 99 0 60 29 101 89 101 43 0 62-24 78-52l27 14C228-24 195 4 139 4 59 4 22-46 18-125c-6-104 99-153 187-111 19 9 31 26 39 46" id="aq"/><g id="l"><use transform="matrix(0.05,0,0,0.05,0,0)" xlink:href="#aq"/><use transform="matrix(0.05,0,0,0.05,12.950000000000001,0)" xlink:href="#ac"/><use transform="matrix(0.05,0,0,0.05,18.900000000000002,0)" xlink:href="#ae"/><use transform="matrix(0.05,0,0,0.05,28.900000000000002,0)" xlink:href="#ab"/><use transform="matrix(0.05,0,0,0.05,38.900000000000006,0)" xlink:href="#aa"/><use transform="matrix(0.05,0,0,0.05,43.900000000000006,0)" xlink:href="#ae"/></g><path d="M100-194c62-1 85 37 85 99 1 63-27 99-86 99S16-35 15-95c0-66 28-99 85-99zM99-20c44 1 53-31 53-75 0-43-8-75-51-75s-53 32-53 75 10 74 51 75" id="ar"/><g id="m"><use transform="matrix(0.05,0,0,0.05,0,0)" xlink:href="#ao"/><use transform="matrix(0.05,0,0,0.05,9,0)" xlink:href="#ar"/><use transform="matrix(0.05,0,0,0.05,19,0)" xlink:href="#ac"/><use transform="matrix(0.05,0,0,0.05,24.95,0)" xlink:href="#ac"/><use transform="matrix(0.05,0,0,0.05,30.899999999999995,0)" xlink:href="#ae"/><use transform="matrix(0.05,0,0,0.05,40.9,0)" xlink:href="#an"/><use transform="matrix(0.05,0,0,0.05,49.9,0)" xlink:href="#am"/><use transform="matrix(0.05,0,0,0.05,59.900000000000006,0)" xlink:href="#ar"/><use transform="matrix(0.05,0,0,0.05,69.9,0)" xlink:href="#ah"/><use transform="matrix(0.05,0,0,0.05,79.9,0)" xlink:href="#ag"/><use transform="matrix(0.05,0,0,0.05,89.9,0)" xlink:href="#aj"/><use transform="matrix(0.05,0,0,0.05,93.85000000000001,0)" xlink:href="#ah"/><use transform="matrix(0.05,0,0,0.05,103.85000000000001,0)" xlink:href="#ad"/></g><g id="n"><use transform="matrix(0.05,0,0,0.05,0,0)" xlink:href="#ai"/><use transform="matrix(0.05,0,0,0.05,9,0)" xlink:href="#ab"/><use transform="matrix(0.05,0,0,0.05,19,0)" xlink:href="#ac"/><use transform="matrix(0.05,0,0,0.05,24.95,0)" xlink:href="#aj"/><use transform="matrix(0.05,0,0,0.05,28.899999999999995,0)" xlink:href="#ab"/><use transform="matrix(0.05,0,0,0.05,38.9,0)" xlink:href="#ak"/><use transform="matrix(0.05,0,0,0.05,48.9,0)" xlink:href="#al"/><use transform="matrix(0.05,0,0,0.05,52.85,0)" xlink:href="#ae"/></g><g id="o"><use transform="matrix(0.05,0,0,0.05,0,0)" xlink:href="#ar"/><use transform="matrix(0.05,0,0,0.05,10,0)" xlink:href="#ah"/></g><g id="p"><use transform="matrix(0.05,0,0,0.05,0,0)" xlink:href="#ag"/><use transform="matrix(0.05,0,0,0.05,10,0)" xlink:href="#ae"/><use transform="matrix(0.05,0,0,0.05,20,0)" xlink:href="#ai"/><use transform="matrix(0.05,0,0,0.05,29,0)" xlink:href="#aj"/><use transform="matrix(0.05,0,0,0.05,32.95,0)" xlink:href="#ao"/><use transform="matrix(0.05,0,0,0.05,41.95,0)" xlink:href="#ae"/></g><path d="M33 0v-248h34V0H33" id="as"/><path d="M210-169c-67 3-38 105-44 169h-31v-121c0-29-5-50-35-48C34-165 62-65 56 0H25l-1-190h30c1 10-1 24 2 32 10-44 99-50 107 0 11-21 27-35 58-36 85-2 47 119 55 194h-31v-121c0-29-5-49-35-48" id="at"/><g id="q"><use transform="matrix(0.05,0,0,0.05,0,0)" xlink:href="#as"/><use transform="matrix(0.05,0,0,0.05,5,0)" xlink:href="#ah"/><use transform="matrix(0.05,0,0,0.05,15,0)" xlink:href="#ao"/><use transform="matrix(0.05,0,0,0.05,24,0)" xlink:href="#ac"/><use transform="matrix(0.05,0,0,0.05,29.950000000000003,0)" xlink:href="#ae"/><use transform="matrix(0.05,0,0,0.05,39.95,0)" xlink:href="#at"/><use transform="matrix(0.05,0,0,0.05,54.900000000000006,0)" xlink:href="#ae"/><use transform="matrix(0.05,0,0,0.05,64.9,0)" xlink:href="#ah"/><use transform="matrix(0.05,0,0,0.05,74.9,0)" xlink:href="#aa"/></g><path d="M101-234c-31-9-42 10-38 44h38v23H63V0H32v-167H5v-23h27c-7-52 17-82 69-68v24" id="au"/><g id="r"><use transform="matrix(0.05,0,0,0.05,0,0)" xlink:href="#ac"/><use transform="matrix(0.05,0,0,0.05,5.95,0)" xlink:href="#ae"/><use transform="matrix(0.05,0,0,0.05,15.949999999999998,0)" xlink:href="#au"/><use transform="matrix(0.05,0,0,0.05,20.95,0)" xlink:href="#ae"/><use transform="matrix(0.05,0,0,0.05,30.950000000000003,0)" xlink:href="#ac"/><use transform="matrix(0.05,0,0,0.05,36.9,0)" xlink:href="#ae"/><use transform="matrix(0.05,0,0,0.05,46.9,0)" xlink:href="#ah"/><use transform="matrix(0.05,0,0,0.05,56.900000000000006,0)" xlink:href="#ao"/><use transform="matrix(0.05,0,0,0.05,65.9,0)" xlink:href="#ae"/></g><path d="M84 4C-5 8 30-112 23-190h32v120c0 31 7 50 39 49 72-2 45-101 50-169h31l1 190h-30c-1-10 1-25-2-33-11 22-28 36-60 37" id="av"/><g id="s"><use transform="matrix(0.05,0,0,0.05,0,0)" xlink:href="#ao"/><use transform="matrix(0.05,0,0,0.05,9,0)" xlink:href="#ar"/><use transform="matrix(0.05,0,0,0.05,19,0)" xlink:href="#av"/><use transform="matrix(0.05,0,0,0.05,29,0)" xlink:href="#ah"/><use transform="matrix(0.05,0,0,0.05,39,0)" xlink:href="#aa"/></g><path d="M118-107v75H92v-75H18v-26h74v-75h26v75h74v26h-74" id="aw"/><path d="M18-150v-26h174v26H18zm0 90v-26h174v26H18" id="ax"/><path d="M27 0v-27h64v-190l-56 39v-29l58-41h29v221h61V0H27" id="ay"/><g id="t"><use transform="matrix(0.05,0,0,0.05,0,0)" xlink:href="#aw"/><use transform="matrix(0.05,0,0,0.05,10.5,0)" xlink:href="#ax"/><use transform="matrix(0.05,0,0,0.05,21,0)" xlink:href="#ay"/></g><path d="M9 0v-24l116-142H16v-24h144v24L44-24h123V0H9" id="az"/><g id="u"><use transform="matrix(0.05,0,0,0.05,0,0)" xlink:href="#as"/><use transform="matrix(0.05,0,0,0.05,5,0)" xlink:href="#ah"/><use transform="matrix(0.05,0,0,0.05,15,0)" xlink:href="#aj"/><use transform="matrix(0.05,0,0,0.05,18.95,0)" xlink:href="#aa"/><use transform="matrix(0.05,0,0,0.05,23.95,0)" xlink:href="#aj"/><use transform="matrix(0.05,0,0,0.05,27.899999999999995,0)" xlink:href="#ab"/><use transform="matrix(0.05,0,0,0.05,37.9,0)" xlink:href="#al"/><use transform="matrix(0.05,0,0,0.05,41.85,0)" xlink:href="#aj"/><use transform="matrix(0.05,0,0,0.05,45.800000000000004,0)" xlink:href="#az"/><use transform="matrix(0.05,0,0,0.05,54.800000000000004,0)" xlink:href="#ae"/></g><g id="v"><use transform="matrix(0.05,0,0,0.05,0,0)" xlink:href="#ac"/><use transform="matrix(0.05,0,0,0.05,5.95,0)" xlink:href="#ae"/><use transform="matrix(0.05,0,0,0.05,15.949999999999998,0)" xlink:href="#au"/><use transform="matrix(0.05,0,0,0.05,20.95,0)" xlink:href="#ae"/><use transform="matrix(0.05,0,0,0.05,30.950000000000003,0)" xlink:href="#ac"/><use transform="matrix(0.05,0,0,0.05,36.9,0)" xlink:href="#ae"/><use transform="matrix(0.05,0,0,0.05,46.9,0)" xlink:href="#ah"/><use transform="matrix(0.05,0,0,0.05,56.900000000000006,0)" xlink:href="#ao"/><use transform="matrix(0.05,0,0,0.05,65.9,0)" xlink:href="#ae"/><use transform="matrix(0.05,0,0,0.05,75.9,0)" xlink:href="#af"/></g><path d="M101-251c68 0 85 55 85 127S166 4 100 4C33 4 14-52 14-124c0-73 17-127 87-127zm-1 229c47 0 54-49 54-102s-4-102-53-102c-51 0-55 48-55 102 0 53 5 102 54 102" id="aA"/><g id="w"><use transform="matrix(0.05,0,0,0.05,0,0)" xlink:href="#ao"/><use transform="matrix(0.05,0,0,0.05,9,0)" xlink:href="#ar"/><use transform="matrix(0.05,0,0,0.05,19,0)" xlink:href="#av"/><use transform="matrix(0.05,0,0,0.05,29,0)" xlink:href="#ah"/><use transform="matrix(0.05,0,0,0.05,39,0)" xlink:href="#aa"/><use transform="matrix(0.05,0,0,0.05,44,0)" xlink:href="#ax"/><use transform="matrix(0.05,0,0,0.05,54.5,0)" xlink:href="#aA"/></g><g id="x"><use transform="matrix(0.05,0,0,0.05,0,0)" xlink:href="#ac"/><use transform="matrix(0.05,0,0,0.05,5.95,0)" xlink:href="#ae"/><use transform="matrix(0.05,0,0,0.05,15.949999999999998,0)" xlink:href="#au"/><use transform="matrix(0.05,0,0,0.05,20.95,0)" xlink:href="#ae"/><use transform="matrix(0.05,0,0,0.05,30.950000000000003,0)" xlink:href="#ac"/><use transform="matrix(0.05,0,0,0.05,36.9,0)" xlink:href="#ae"/><use transform="matrix(0.05,0,0,0.05,46.9,0)" xlink:href="#ah"/><use transform="matrix(0.05,0,0,0.05,56.900000000000006,0)" xlink:href="#ao"/><use transform="matrix(0.05,0,0,0.05,65.9,0)" xlink:href="#ae"/></g><g id="y"><use transform="matrix(0.05,0,0,0.05,0,0)" xlink:href="#ao"/><use transform="matrix(0.05,0,0,0.05,9,0)" xlink:href="#ar"/><use transform="matrix(0.05,0,0,0.05,19,0)" xlink:href="#av"/><use transform="matrix(0.05,0,0,0.05,29,0)" xlink:href="#ah"/><use transform="matrix(0.05,0,0,0.05,39,0)" xlink:href="#aa"/></g><g id="z"><use transform="matrix(0.05,0,0,0.05,0,0)" xlink:href="#ax"/><use transform="matrix(0.05,0,0,0.05,10.5,0)" xlink:href="#ax"/></g><use transform="matrix(0.05,0,0,0.05,0,0)" xlink:href="#ay" id="A"/><use transform="matrix(0.05,0,0,0.05,0,0)" xlink:href="#ap" id="B"/><path d="M137-103V0h-34v-103L8-248h37l75 118 75-118h37" id="aB"/><g id="C"><use transform="matrix(0.05,0,0,0.05,0,0)" xlink:href="#aB"/><use transform="matrix(0.05,0,0,0.05,10.35,0)" xlink:href="#ae"/><use transform="matrix(0.05,0,0,0.05,20.35,0)" xlink:href="#an"/></g><path d="M248-111c6-24 9-61-24-58-72 9-57 108-77 169h-31l26-142c3-37-50-30-64-10C52-115 50-51 37 0H6l36-190h30c-1 10-6 24-4 32 13-43 101-52 105 5 13-22 29-41 61-41 90 0 28 129 23 194h-31" id="aC"/><path d="M165-48c-4 18 1 34 23 27l-3 20c-29 8-62 0-52-35h-2C116-14 99 4 63 4 30 4 8-16 8-49c0-68 71-67 138-67 10-26 0-56-31-54-26 1-42 9-47 31l-32-5c8-67 160-71 144 15-5 28-9 54-15 81zM42-50c3 52 80 24 89-6 7-12 7-24 11-38-47 1-103-4-100 44" id="aD"/><path d="M67-162c32-53 139-36 121 50C175-51 163 2 97 4 68 4 52-11 42-31 38 6 28 39 22 75H-9l50-265h29c-1 10 0 20-3 28zm89 36c0-26-10-43-35-43-54 0-67 50-69 103-1 29 14 45 42 46 53 0 62-58 62-106" id="aE"/><path d="M18-82l6-28h88l-6 28H18" id="aF"/><path d="M51-54c-9 22 5 41 31 30L79-1C43 14 10-4 19-52l22-115H19l5-23h22l19-43h21l-9 43h35l-4 23H73" id="aG"/><path d="M198-190L69 30C53 58 25 83-20 72c4-11-1-27 19-22 33-1 43-29 59-52L20-190h32L79-34l84-156h35" id="aH"/><path d="M111-194c62-3 86 47 72 106H45c-7 38 6 69 45 68 27-1 43-14 53-32l24 11C152-15 129 4 87 4 38 3 12-23 12-71c0-70 32-119 99-123zm44 81c14-66-71-72-95-28-4 8-8 17-11 28h106" id="aI"/><g id="D"><use transform="matrix(0.05,0,0,0.05,0,0)" xlink:href="#aC"/><use transform="matrix(0.05,0,0,0.05,14.950000000000001,0)" xlink:href="#aD"/><use transform="matrix(0.05,0,0,0.05,24.950000000000003,0)" xlink:href="#aE"/><use transform="matrix(0.05,0,0,0.05,34.95,0)" xlink:href="#aF"/><use transform="matrix(0.05,0,0,0.05,40.900000000000006,0)" xlink:href="#aG"/><use transform="matrix(0.05,0,0,0.05,45.900000000000006,0)" xlink:href="#aH"/><use transform="matrix(0.05,0,0,0.05,54.900000000000006,0)" xlink:href="#aE"/><use transform="matrix(0.05,0,0,0.05,64.9,0)" xlink:href="#aI"/></g><path d="M23-150v-26h175v26H23zm0 90v-26h175v26H23" id="aJ"/><g id="E"><use transform="matrix(0.05,0,0,0.05,0,0)" xlink:href="#aJ"/><use transform="matrix(0.05,0,0,0.05,10.5,0)" xlink:href="#aJ"/></g><path d="M115-3C79 11 28 4 28-45v-112H4v-33h27l15-45h31v45h36v33H77v99c-1 23 16 31 38 25v30" id="aK"/><path d="M110-194c64 0 96 36 96 99 0 64-35 99-97 99-61 0-95-36-95-99 0-62 34-99 96-99zm-1 164c35 0 45-28 45-65 0-40-10-65-43-65-34 0-45 26-45 65 0 36 10 65 43 65" id="aL"/><g id="F"><use transform="matrix(0.05,0,0,0.05,0,0)" xlink:href="#aK"/><use transform="matrix(0.05,0,0,0.05,5.95,0)" xlink:href="#aL"/></g><path d="M32 76v-337h29V76H32" id="aM"/><g id="G"><use transform="matrix(0.05,0,0,0.05,0,0)" xlink:href="#aM"/><use transform="matrix(0.05,0,0,0.05,4.65,0)" xlink:href="#aM"/></g><g id="H"><use transform="matrix(0.05,0,0,0.05,0,0)" xlink:href="#ax"/><use transform="matrix(0.05,0,0,0.05,10.5,0)" xlink:href="#ax"/></g><path d="M121-226c-27-7-43 5-38 36h38v33H83V0H34v-157H6v-33h28c-9-59 32-81 87-68v32" id="aN"/><path d="M135-150c-39-12-60 13-60 57V0H25l-1-190h47c2 13-1 29 3 40 6-28 27-53 61-41v41" id="aO"/><path d="M220-157c-53 9-28 100-34 157h-49v-107c1-27-5-49-29-50C55-147 81-57 75 0H25l-1-190h47c2 12-1 28 3 38 10-53 101-56 108 0 13-22 24-43 59-42 82 1 51 116 57 194h-49v-107c-1-25-5-48-29-50" id="aP"/><g id="I"><use transform="matrix(0.05,0,0,0.05,0,0)" xlink:href="#aK"/><use transform="matrix(0.05,0,0,0.05,5.95,0)" xlink:href="#aL"/><use transform="matrix(0.05,0,0,0.05,16.900000000000002,0)" xlink:href="#aN"/><use transform="matrix(0.05,0,0,0.05,22.85,0)" xlink:href="#aO"/><use transform="matrix(0.05,0,0,0.05,29.85,0)" xlink:href="#aL"/><use transform="matrix(0.05,0,0,0.05,40.800000000000004,0)" xlink:href="#aP"/></g><path d="M197 0v-115H63V0H30v-248h33v105h134v-105h34V0h-34" id="aQ"/><path d="M16-82v-28h88v28H16" id="aR"/><path d="M30-248c118-7 216 8 213 122C240-48 200 0 122 0H30v-248zM63-27c89 8 146-16 146-99s-60-101-146-95v194" id="aS"/><g id="J"><use transform="matrix(0.05,0,0,0.05,0,0)" xlink:href="#aQ"/><use transform="matrix(0.05,0,0,0.05,12.950000000000001,0)" xlink:href="#ar"/><use transform="matrix(0.05,0,0,0.05,22.950000000000003,0)" xlink:href="#an"/><use transform="matrix(0.05,0,0,0.05,31.950000000000003,0)" xlink:href="#aa"/><use transform="matrix(0.05,0,0,0.05,36.95,0)" xlink:href="#aR"/><use transform="matrix(0.05,0,0,0.05,42.900000000000006,0)" xlink:href="#aS"/><use transform="matrix(0.05,0,0,0.05,55.85,0)" xlink:href="#ae"/><use transform="matrix(0.05,0,0,0.05,65.85000000000001,0)" xlink:href="#ai"/><use transform="matrix(0.05,0,0,0.05,74.85000000000001,0)" xlink:href="#aj"/><use transform="matrix(0.05,0,0,0.05,78.80000000000001,0)" xlink:href="#ao"/><use transform="matrix(0.05,0,0,0.05,87.80000000000001,0)" xlink:href="#ae"/></g><path d="M240 0l2-218c-23 76-54 145-80 218h-23L58-218 59 0H30v-248h44l77 211c21-75 51-140 76-211h43V0h-30" id="aT"/><path d="M179-190L93 31C79 59 56 82 12 73V49c39 6 53-20 64-50L1-190h34L92-34l54-156h33" id="aU"/><g id="K"><use transform="matrix(0.05,0,0,0.05,0,0)" xlink:href="#aT"/><use transform="matrix(0.05,0,0,0.05,14.950000000000001,0)" xlink:href="#ae"/><use transform="matrix(0.05,0,0,0.05,24.950000000000003,0)" xlink:href="#at"/><use transform="matrix(0.05,0,0,0.05,39.900000000000006,0)" xlink:href="#ar"/><use transform="matrix(0.05,0,0,0.05,49.900000000000006,0)" xlink:href="#ac"/><use transform="matrix(0.05,0,0,0.05,55.85,0)" xlink:href="#aU"/></g><g id="L"><use transform="matrix(0.05,0,0,0.05,0,0)" xlink:href="#aq"/><use transform="matrix(0.05,0,0,0.05,12.950000000000001,0)" xlink:href="#ar"/><use transform="matrix(0.05,0,0,0.05,22.950000000000003,0)" xlink:href="#am"/><use transform="matrix(0.05,0,0,0.05,32.95,0)" xlink:href="#aU"/></g><path d="M190 0L58-211 59 0H30v-248h39L202-35l-2-213h31V0h-41" id="aV"/><g id="N"><use transform="matrix(0.05,0,0,0.05,0,0)" xlink:href="#aV"/><use transform="matrix(0.05,0,0,0.05,12.950000000000001,0)" xlink:href="#ar"/></g><g id="O"><use transform="matrix(0.05,0,0,0.05,0,0)" xlink:href="#aC"/><use transform="matrix(0.05,0,0,0.05,14.950000000000001,0)" xlink:href="#aD"/><use transform="matrix(0.05,0,0,0.05,24.950000000000003,0)" xlink:href="#aE"/><use transform="matrix(0.05,0,0,0.05,34.95,0)" xlink:href="#aF"/><use transform="matrix(0.05,0,0,0.05,40.900000000000006,0)" xlink:href="#aG"/><use transform="matrix(0.05,0,0,0.05,45.900000000000006,0)" xlink:href="#aH"/><use transform="matrix(0.05,0,0,0.05,54.900000000000006,0)" xlink:href="#aE"/><use transform="matrix(0.05,0,0,0.05,64.9,0)" xlink:href="#aI"/><use transform="matrix(0.05,0,0,0.05,74.9,0)" xlink:href="#aF"/></g><path d="M30-147c31-64 166-65 159 27C183-49 158 1 86 4 9 8 1-88 30-147zM88-20c53 0 68-48 68-100 0-31-11-51-44-50-52 1-68 46-68 97 0 32 13 53 44 53" id="aW"/><path d="M133-28C103 26-5 8 13-77c13-62 24-115 90-117 29-1 46 15 56 35l19-102h32L160 0h-30zM45-64c-2 27 10 43 35 43 54-1 69-50 69-103 0-29-15-46-42-46-53-1-58 58-62 106" id="aX"/><path d="M50-231l6-30h32l-6 30H50zM6 0l37-190h31L37 0H6" id="aY"/><path d="M76-167L44 0H12l33-167H18l4-23h27c3-47 25-81 82-69l-4 24c-35-8-44 15-46 45h37l-5 23H76" id="aZ"/><path d="M66-151c12-25 30-51 66-40l-6 26C45-176 58-65 38 0H6l36-190h30" id="ba"/><g id="P"><use transform="matrix(0.05,0,0,0.05,0,0)" xlink:href="#aC"/><use transform="matrix(0.05,0,0,0.05,14.950000000000001,0)" xlink:href="#aW"/><use transform="matrix(0.05,0,0,0.05,24.950000000000003,0)" xlink:href="#aX"/><use transform="matrix(0.05,0,0,0.05,34.95,0)" xlink:href="#aY"/><use transform="matrix(0.05,0,0,0.05,38.900000000000006,0)" xlink:href="#aZ"/><use transform="matrix(0.05,0,0,0.05,43.900000000000006,0)" xlink:href="#aY"/><use transform="matrix(0.05,0,0,0.05,47.85000000000001,0)" xlink:href="#aI"/><use transform="matrix(0.05,0,0,0.05,57.85,0)" xlink:href="#ba"/></g><g id="Q"><use transform="matrix(0.05,0,0,0.05,0,0)" xlink:href="#aJ"/><use transform="matrix(0.05,0,0,0.05,10.5,0)" xlink:href="#aJ"/></g><path d="M133-34C117-15 103 5 69 4 32 3 11-16 11-54c-1-60 55-63 116-61 1-26-3-47-28-47-18 1-26 9-28 27l-52-2c7-38 36-58 82-57s74 22 75 68l1 82c-1 14 12 18 25 15v27c-30 8-71 5-69-32zm-48 3c29 0 43-24 42-57-32 0-66-3-65 30 0 17 8 27 23 27" id="bb"/><path d="M25 0v-261h50V0H25" id="bc"/><path d="M231 0h-52l-39-155L100 0H48L-1-190h46L77-45c9-52 24-97 36-145h53l37 145 32-145h46" id="bd"/><path d="M123 10C108 53 80 86 19 72V37c35 8 53-11 59-39L3-190h52l48 148c12-52 28-100 44-148h51" id="be"/><path d="M137-138c1-29-70-34-71-4 15 46 118 7 119 86 1 83-164 76-172 9l43-7c4 19 20 25 44 25 33 8 57-30 24-41C81-84 22-81 20-136c-2-80 154-74 161-7" id="bf"/><g id="R"><use transform="matrix(0.05,0,0,0.05,0,0)" xlink:href="#bb"/><use transform="matrix(0.05,0,0,0.05,10,0)" xlink:href="#bc"/><use transform="matrix(0.05,0,0,0.05,15,0)" xlink:href="#bd"/><use transform="matrix(0.05,0,0,0.05,29,0)" xlink:href="#bb"/><use transform="matrix(0.05,0,0,0.05,39,0)" xlink:href="#be"/><use transform="matrix(0.05,0,0,0.05,49,0)" xlink:href="#bf"/></g><g id="S"><use transform="matrix(0.05,0,0,0.05,0,0)" xlink:href="#aN"/><use transform="matrix(0.05,0,0,0.05,5.95,0)" xlink:href="#aO"/><use transform="matrix(0.05,0,0,0.05,12.949999999999998,0)" xlink:href="#aL"/><use transform="matrix(0.05,0,0,0.05,23.9,0)" xlink:href="#aP"/></g><path d="M190-63c-7 42-38 67-86 67-59 0-84-38-90-98-12-110 154-137 174-36l-49 2c-2-19-15-32-35-32-30 0-35 28-38 64-6 74 65 87 74 30" id="bg"/><g id="T"><use transform="matrix(0.05,0,0,0.05,0,0)" xlink:href="#bb"/><use transform="matrix(0.05,0,0,0.05,10,0)" xlink:href="#bc"/><use transform="matrix(0.05,0,0,0.05,15,0)" xlink:href="#bc"/><use transform="matrix(0.05,0,0,0.05,20,0)" xlink:href="#aL"/><use transform="matrix(0.05,0,0,0.05,30.950000000000003,0)" xlink:href="#bg"/></g><g id="U"><use transform="matrix(0.05,0,0,0.05,0,0)" xlink:href="#aS"/><use transform="matrix(0.05,0,0,0.05,12.950000000000001,0)" xlink:href="#ae"/><use transform="matrix(0.05,0,0,0.05,22.950000000000003,0)" xlink:href="#ai"/><use transform="matrix(0.05,0,0,0.05,31.950000000000003,0)" xlink:href="#aj"/><use transform="matrix(0.05,0,0,0.05,35.900000000000006,0)" xlink:href="#ao"/><use transform="matrix(0.05,0,0,0.05,44.900000000000006,0)" xlink:href="#ae"/></g><path d="M137 0h-34L2-248h35l83 218 83-218h36" id="bh"/><g id="V"><use transform="matrix(0.05,0,0,0.05,0,0)" xlink:href="#bh"/><use transform="matrix(0.05,0,0,0.05,10.65,0)" xlink:href="#ab"/><use transform="matrix(0.05,0,0,0.05,20.65,0)" xlink:href="#ac"/><use transform="matrix(0.05,0,0,0.05,26.599999999999994,0)" xlink:href="#aj"/><use transform="matrix(0.05,0,0,0.05,30.549999999999997,0)" xlink:href="#ab"/><use transform="matrix(0.05,0,0,0.05,40.55,0)" xlink:href="#ak"/><use transform="matrix(0.05,0,0,0.05,50.55,0)" xlink:href="#al"/><use transform="matrix(0.05,0,0,0.05,54.5,0)" xlink:href="#ae"/></g><g id="W"><use transform="matrix(0.05,0,0,0.05,0,0)" xlink:href="#aj"/><use transform="matrix(0.05,0,0,0.05,3.95,0)" xlink:href="#an"/></g><path d="M232-93c-1 65-40 97-104 97C67 4 28-28 28-90v-158h33c8 89-33 224 67 224 102 0 64-133 71-224h33v155" id="bi"/><g id="X"><use transform="matrix(0.05,0,0,0.05,0,0)" xlink:href="#bi"/><use transform="matrix(0.05,0,0,0.05,12.950000000000001,0)" xlink:href="#ah"/><use transform="matrix(0.05,0,0,0.05,22.950000000000003,0)" xlink:href="#ag"/><use transform="matrix(0.05,0,0,0.05,32.95,0)" xlink:href="#ae"/><use transform="matrix(0.05,0,0,0.05,42.95,0)" xlink:href="#au"/><use transform="matrix(0.05,0,0,0.05,47.95,0)" xlink:href="#aj"/><use transform="matrix(0.05,0,0,0.05,51.900000000000006,0)" xlink:href="#ah"/><use transform="matrix(0.05,0,0,0.05,61.900000000000006,0)" xlink:href="#ae"/><use transform="matrix(0.05,0,0,0.05,71.9,0)" xlink:href="#ag"/></g><path d="M30-248c87 1 191-15 191 75 0 78-77 80-158 76V0H30v-248zm33 125c57 0 124 11 124-50 0-59-68-47-124-48v98" id="bj"/><g id="Y"><use transform="matrix(0.05,0,0,0.05,0,0)" xlink:href="#bj"/><use transform="matrix(0.05,0,0,0.05,12,0)" xlink:href="#ae"/><use transform="matrix(0.05,0,0,0.05,22,0)" xlink:href="#ac"/><use transform="matrix(0.05,0,0,0.05,27.950000000000003,0)" xlink:href="#an"/><use transform="matrix(0.05,0,0,0.05,36.95,0)" xlink:href="#aj"/><use transform="matrix(0.05,0,0,0.05,40.900000000000006,0)" xlink:href="#an"/><use transform="matrix(0.05,0,0,0.05,49.900000000000006,0)" xlink:href="#aa"/><use transform="matrix(0.05,0,0,0.05,54.900000000000006,0)" xlink:href="#ae"/><use transform="matrix(0.05,0,0,0.05,64.9,0)" xlink:href="#ah"/><use transform="matrix(0.05,0,0,0.05,74.9,0)" xlink:href="#aa"/></g><g id="Z"><use transform="matrix(0.05,0,0,0.05,0,0)" xlink:href="#as"/><use transform="matrix(0.05,0,0,0.05,5,0)" xlink:href="#ah"/></g></defs></g></svg>